<?xml version="1.0" encoding="UTF-8" standalone="no"?>
<svg
   height="24"
   viewBox="0 -960 960 960"
   width="24"
   version="1.1"
   id="svg1"
   sodipodi:docname="edit_FILL0_wght400_GRAD0_opsz24.svg"
   inkscape:export-filename="icono4_2.png"
   inkscape:export-xdpi="96"
   inkscape:export-ydpi="96"
   inkscape:version="1.3 (0e150ed6c4, 2023-07-21)"
   xmlns:inkscape="http://www.inkscape.org/namespaces/inkscape"
   xmlns:sodipodi="http://sodipodi.sourceforge.net/DTD/sodipodi-0.dtd"
   xmlns="http://www.w3.org/2000/svg"
   xmlns:svg="http://www.w3.org/2000/svg">
  <defs
     id="defs1" />
  <sodipodi:namedview
     id="namedview1"
     pagecolor="#ffffff"
     bordercolor="#000000"
     borderopacity="0.25"
     inkscape:showpageshadow="2"
     inkscape:pageopacity="0.0"
     inkscape:pagecheckerboard="0"
     inkscape:deskcolor="#d1d1d1"
     inkscape:zoom="16.791667"
     inkscape:cx="12"
     inkscape:cy="11.970223"
     inkscape:window-width="1024"
     inkscape:window-height="705"
     inkscape:window-x="-8"
     inkscape:window-y="-8"
     inkscape:window-maximized="1"
     inkscape:current-layer="svg1" />
  <path
     d="M200-200h57l391-391-57-57-391 391v57Zm-80 80v-170l528-527q12-11 26.5-17t30.5-6q16 0 31 6t26 18l55 56q12 11 17.5 26t5.5 30q0 16-5.5 30.5T817-647L290-120H120Zm640-584-56-56 56 56Zm-141 85-28-29 57 57-29-28Z"
     id="path1" />
  <path
     style="fill:#ffffff;stroke-width:0.196048;stroke-linecap:round;stroke-linejoin:round;stroke-miterlimit:21.5"
     d="m 3.0372208,18.892686 v -2.09987 L 9.7816377,10.055699 C 16.133447,3.7107638 16.545122,3.3117233 16.853598,3.2007754 c 0.180149,-0.064793 0.429775,-0.1363386 0.554724,-0.1589902 0.272414,-0.049385 0.816721,0.054048 1.13487,0.2156548 0.126796,0.064407 0.649376,0.545117 1.16129,1.0682446 1.111014,1.1353498 1.226396,1.32769 1.227674,2.0465238 0.0016,0.9190232 0.580871,0.2686904 -6.988397,7.8461536 L 7.1768918,20.992556 H 5.1070563 3.0372208 Z M 11.32989,14.158945 c 2.677742,-2.677593 4.868621,-4.8956293 4.868621,-4.9289708 0,-0.033341 -0.321767,-0.3815492 -0.715038,-0.7737958 L 14.768434,7.7430028 9.855681,12.655485 4.942928,17.567967 v 0.729665 0.729663 h 0.7591699 0.7591698 z"
     id="path2"
     transform="matrix(40,0,0,40,0,-960)" />
</svg>
