<?xml version="1.0" encoding="UTF-8" standalone="no"?>
<svg
   height="24"
   viewBox="0 -960 960 960"
   width="24"
   version="1.1"
   id="svg1"
   sodipodi:docname="grade_FILL0_wght400_GRAD0_opsz24 (1).svg"
   inkscape:export-filename="icono3.png"
   inkscape:export-xdpi="96"
   inkscape:export-ydpi="96"
   inkscape:version="1.3 (0e150ed6c4, 2023-07-21)"
   xmlns:inkscape="http://www.inkscape.org/namespaces/inkscape"
   xmlns:sodipodi="http://sodipodi.sourceforge.net/DTD/sodipodi-0.dtd"
   xmlns="http://www.w3.org/2000/svg"
   xmlns:svg="http://www.w3.org/2000/svg">
  <defs
     id="defs1" />
  <sodipodi:namedview
     id="namedview1"
     pagecolor="#ffffff"
     bordercolor="#000000"
     borderopacity="0.25"
     inkscape:showpageshadow="2"
     inkscape:pageopacity="0.0"
     inkscape:pagecheckerboard="0"
     inkscape:deskcolor="#d1d1d1"
     inkscape:zoom="16.791667"
     inkscape:cx="12"
     inkscape:cy="11.970223"
     inkscape:window-width="1024"
     inkscape:window-height="705"
     inkscape:window-x="-8"
     inkscape:window-y="-8"
     inkscape:window-maximized="1"
     inkscape:current-layer="svg1" />
  <path
     d="m354-287 126-76 126 77-33-144 111-96-146-13-58-136-58 135-146 13 111 97-33 143ZM233-120l65-281L80-590l288-25 112-265 112 265 288 25-218 189 65 281-247-149-247 149Zm247-350Z"
     id="path1" />
  <path
     style="fill:#ffffff;stroke-width:0.196048;stroke-linecap:round;stroke-linejoin:round;stroke-miterlimit:21.5"
     d="M 5.9139436,20.749246 C 5.9337378,20.670163 6.2867792,19.144913 6.6984801,17.359801 7.110181,15.57469 7.4586946,14.081291 7.4729546,14.041138 7.4872147,14.000985 6.2843718,12.915625 4.7999703,11.629227 3.3155689,10.34283 2.1174024,9.2842624 2.137378,9.2768558 2.1573536,9.2694491 3.7544097,9.1268891 5.6863917,8.9600564 7.9691607,8.7629318 9.2139311,8.6327035 9.2414847,8.5881213 9.264804,8.5503901 9.8925916,7.0781248 10.636568,5.3164208 11.380545,3.5547167 11.997599,2.1216686 12.0078,2.1318694 c 0.0102,0.010201 0.633485,1.4731868 1.385075,3.2510801 0.751591,1.7778932 1.375439,3.2408311 1.38633,3.2509731 0.01089,0.010142 1.614116,0.1572869 3.562721,0.326989 1.948605,0.1697014 3.546678,0.3132422 3.551273,0.3189796 0.0046,0.00574 -1.20368,1.0611328 -2.685056,2.3453228 l -2.693409,2.334892 0.794248,3.437315 c 0.436836,1.890523 0.783078,3.448484 0.769427,3.462136 -0.01884,0.01884 -2.922214,-1.713717 -5.989079,-3.573908 -0.06611,-0.0401 -0.863211,0.41327 -3.0669975,1.744437 -1.6377171,0.98924 -3.0151774,1.813093 -3.0610229,1.830783 -0.062548,0.02413 -0.074371,-0.0037 -0.047366,-0.111623 z m 9.2438314,-4.029643 c -0.02268,-0.09007 -0.200584,-0.860546 -0.395336,-1.712159 -0.194753,-0.851613 -0.36681,-1.589964 -0.382349,-1.64078 -0.01933,-0.06323 0.414353,-0.474423 1.373996,-1.302726 0.771236,-0.665684 1.39443,-1.217665 1.384875,-1.226626 -0.0096,-0.009 -0.834743,-0.08902 -1.83375,-0.177916 -0.999008,-0.08889 -1.820959,-0.165425 -1.826558,-0.17007 -0.0056,-0.0046 -0.327187,-0.7535753 -0.71464,-1.6642878 C 12.37656,7.9143254 12.03553,7.164068 12.006169,7.1577994 c -0.02936,-0.00627 -0.367837,0.7227126 -0.752168,1.6199582 -0.384331,0.8972457 -0.735494,1.6505064 -0.780362,1.6739144 -0.04487,0.02341 -0.8051526,0.102689 -1.6895199,0.176183 -0.8843672,0.07349 -1.6798033,0.151001 -1.7676356,0.172239 -0.1492586,0.03609 -0.068438,0.118061 1.2366722,1.254253 0.9754095,0.849163 1.3875776,1.244136 1.367211,1.310173 -0.016036,0.052 -0.1918738,0.804711 -0.3907498,1.672701 -0.1988767,0.86799 -0.375578,1.625062 -0.3926704,1.682382 -0.017092,0.05732 -0.00284,0.104218 0.031662,0.104218 0.034506,0 0.7509231,-0.416549 1.5920375,-0.925664 0.841115,-0.509116 1.558361,-0.912866 1.59388,-0.897223 0.03552,0.01564 0.734557,0.443371 1.553415,0.950505 0.818859,0.507135 1.511837,0.924284 1.539955,0.926999 0.02812,0.0027 0.03256,-0.06876 0.0099,-0.158835 z"
     id="path2"
     transform="matrix(40,0,0,40,0,-960)" />
</svg>
