<?xml version="1.0" encoding="UTF-8" standalone="no"?>
<svg
   height="24px"
   viewBox="0 -960 960 960"
   width="24px"
   fill="#e8eaed"
   version="1.1"
   id="svg1"
   sodipodi:docname="groups_24dp_FILL0_wght400_GRAD0_opsz24.svg"
   inkscape:export-filename="grupo.png"
   inkscape:export-xdpi="96"
   inkscape:export-ydpi="96"
   inkscape:version="1.3 (0e150ed6c4, 2023-07-21)"
   xmlns:inkscape="http://www.inkscape.org/namespaces/inkscape"
   xmlns:sodipodi="http://sodipodi.sourceforge.net/DTD/sodipodi-0.dtd"
   xmlns="http://www.w3.org/2000/svg"
   xmlns:svg="http://www.w3.org/2000/svg">
  <defs
     id="defs1" />
  <sodipodi:namedview
     id="namedview1"
     pagecolor="#ffffff"
     bordercolor="#000000"
     borderopacity="0.25"
     inkscape:showpageshadow="2"
     inkscape:pageopacity="0.0"
     inkscape:pagecheckerboard="0"
     inkscape:deskcolor="#d1d1d1"
     inkscape:zoom="16.791667"
     inkscape:cx="12"
     inkscape:cy="11.970223"
     inkscape:window-width="1024"
     inkscape:window-height="705"
     inkscape:window-x="-8"
     inkscape:window-y="-8"
     inkscape:window-maximized="1"
     inkscape:current-layer="svg1" />
  <path
     d="M0-240v-63q0-43 44-70t116-27q13 0 25 .5t23 2.5q-14 21-21 44t-7 48v65H0Zm240 0v-65q0-32 17.5-58.5T307-410q32-20 76.5-30t96.5-10q53 0 97.5 10t76.5 30q32 20 49 46.5t17 58.5v65H240Zm540 0v-65q0-26-6.5-49T754-397q11-2 22.5-2.5t23.5-.5q72 0 116 26.5t44 70.5v63H780Zm-455-80h311q-10-20-55.5-35T480-370q-55 0-100.5 15T325-320ZM160-440q-33 0-56.5-23.5T80-520q0-34 23.5-57t56.5-23q34 0 57 23t23 57q0 33-23 56.5T160-440Zm640 0q-33 0-56.5-23.5T720-520q0-34 23.5-57t56.5-23q34 0 57 23t23 57q0 33-23 56.5T800-440Zm-320-40q-50 0-85-35t-35-85q0-51 35-85.5t85-34.5q51 0 85.5 34.5T600-600q0 50-34.5 85T480-480Zm0-80q17 0 28.5-11.5T520-600q0-17-11.5-28.5T480-640q-17 0-28.5 11.5T440-600q0 17 11.5 28.5T480-560Zm1 240Zm-1-280Z"
     id="path1" />
  <path
     style="fill:#ffffff;stroke-width:0.196048;stroke-linecap:round;stroke-linejoin:round;stroke-miterlimit:21.5"
     d="M 0.0110241,16.987236 C 0.03516246,16.10516 0.05103383,15.990065 0.18964136,15.691951 0.40091356,15.237552 0.8278183,14.83712 1.3995037,14.557114 c 0.5572139,-0.272918 0.98312,-0.390393 1.7407071,-0.480129 0.5356336,-0.06344 1.8789256,-0.05537 1.9459949,0.0117 0.01845,0.01845 -0.058117,0.219318 -0.1701469,0.446374 -0.3379482,0.684934 -0.3986666,1.003915 -0.4328327,2.273872 L 4.452384,17.955335 H 2.2184579 -0.01546829 Z"
     id="path2"
     transform="matrix(40,0,0,40,0,-960)" />
  <path
     style="fill:#ffffff;stroke-width:0.196048;stroke-linecap:round;stroke-linejoin:round;stroke-miterlimit:21.5"
     d="M 3.2787724,12.84767 C 2.9012196,12.700369 2.3675937,12.186871 2.1973897,11.807075 2.0036509,11.374763 1.9971898,10.608685 2.1838605,10.202938 2.3650641,9.8090745 2.7555149,9.409795 3.1479003,9.2170998 3.4359449,9.075645 3.5569372,9.0521092 3.9960788,9.0521092 c 0.4678443,0 0.5475999,0.018053 0.9208353,0.2084367 0.6835769,0.3486856 1.0384209,0.9417051 1.0384209,1.7354221 0,0.75724 -0.3715688,1.393348 -1.021018,1.747933 -0.2749534,0.150119 -0.392841,0.176398 -0.8549125,0.190576 -0.3982863,0.01222 -0.6039695,-0.01008 -0.8006321,-0.08681 z"
     id="path3"
     transform="matrix(40,0,0,40,0,-960)" />
  <path
     style="fill:#ffffff;stroke-width:0.196048;stroke-linecap:round;stroke-linejoin:round;stroke-miterlimit:21.5"
     d="m 6.0148883,17.064966 c 0,-0.489703 0.02987,-1.032383 0.066377,-1.205955 0.1991053,-0.946631 0.9150962,-1.75468 2.0477666,-2.311055 0.9493553,-0.466331 1.9667451,-0.692252 3.3945411,-0.753791 2.005134,-0.08642 3.772435,0.295388 4.919877,1.062899 0.604616,0.404421 0.996935,0.822866 1.246061,1.32904 0.239105,0.485812 0.295601,0.845894 0.295601,1.884059 v 0.885172 H 12 6.0148883 Z m 9.8858557,-1.084113 c 0,-0.150032 -0.485832,-0.51956 -0.921588,-0.700965 -1.013377,-0.42187 -1.966775,-0.570912 -3.336476,-0.521583 -1.323004,0.04765 -2.3663779,0.305756 -3.0755392,0.760824 -0.2419533,0.155261 -0.4678852,0.396037 -0.4678852,0.498627 0,0.01753 1.755335,0.03187 3.9007444,0.03187 2.909459,0 3.900744,-0.01748 3.900744,-0.06877 z"
     id="path4"
     transform="matrix(40,0,0,40,0,-960)" />
  <path
     style="fill:#ffffff;stroke-width:0.196048;stroke-linecap:round;stroke-linejoin:round;stroke-miterlimit:21.5"
     d="m 11.583127,11.936711 c -0.702506,-0.09403 -1.232419,-0.370194 -1.7387678,-0.906144 -0.5774162,-0.611172 -0.79225,-1.1653106 -0.79225,-2.0435143 0,-0.917838 0.2664851,-1.5419498 0.9238417,-2.1636504 0.1916911,-0.1812938 0.5114641,-0.395888 0.7798451,-0.5233418 0.407659,-0.1935963 0.517612,-0.2188285 1.058376,-0.2428788 0.994179,-0.044216 1.657811,0.196085 2.291464,0.8297378 0.590569,0.5905688 0.842255,1.2197832 0.842255,2.1056363 0,0.9033688 -0.252932,1.5198812 -0.878298,2.1408202 -0.393423,0.390639 -1.01688,0.71857 -1.47406,0.775337 -0.589472,0.07319 -0.66016,0.07515 -1.012406,0.028 z m 0.838427,-2.0149044 c 0.749936,-0.3406038 0.804845,-1.3978851 0.09415,-1.8129505 -0.266439,-0.1556084 -0.764979,-0.1556084 -1.031418,0 C 10.95239,8.4195033 10.819484,9.1554158 11.206439,9.6473499 11.360095,9.8426914 11.750782,10.032124 12,10.032124 c 0.09826,0 0.287962,-0.049643 0.421554,-0.1103174 z"
     id="path5"
     transform="matrix(40,0,0,40,0,-960)" />
  <path
     style="fill:#ffffff;stroke-width:0.196048;stroke-linecap:round;stroke-linejoin:round;stroke-miterlimit:21.5"
     d="m 19.340701,12.865536 c -0.561563,-0.213418 -1.024748,-0.691578 -1.217283,-1.256636 -0.129875,-0.381164 -0.08759,-1.104352 0.08521,-1.457445 0.18314,-0.3742096 0.578388,-0.7595926 0.967548,-0.9433982 0.421932,-0.1992848 1.120726,-0.2175227 1.57799,-0.041184 0.391107,0.1508262 0.874487,0.613391 1.049944,1.0047322 0.20729,0.462341 0.199937,1.19711 -0.0166,1.658989 -0.186453,0.397706 -0.543815,0.763561 -0.932357,0.954516 -0.346522,0.170303 -1.163765,0.213704 -1.514454,0.08043 z"
     id="path6"
     transform="matrix(40,0,0,40,0,-960)" />
  <path
     style="fill:#ffffff;stroke-width:0.196048;stroke-linecap:round;stroke-linejoin:round;stroke-miterlimit:21.5"
     d="m 19.517987,16.779156 c -0.0324,-1.295553 -0.09177,-1.620164 -0.418255,-2.287227 l -0.19402,-0.396408 0.209675,-0.0347 c 0.752243,-0.124486 2.283422,0.0241 3.040355,0.295032 0.517806,0.185341 1.18728,0.608755 1.396749,0.883383 0.341198,0.447334 0.406497,0.709339 0.43574,1.748355 l 0.02724,0.967742 H 21.78144 19.547409 Z"
     id="path7"
     transform="matrix(40,0,0,40,0,-960)" />
</svg>
