<?xml version="1.0" encoding="UTF-8" standalone="no"?>
<svg
   height="24px"
   viewBox="0 -960 960 960"
   width="24px"
   fill="#e8eaed"
   version="1.1"
   id="svg1"
   sodipodi:docname="manage_accounts_24dp_FILL0_wght400_GRAD0_opsz24.svg"
   inkscape:export-filename="config_alumno.png"
   inkscape:export-xdpi="96"
   inkscape:export-ydpi="96"
   inkscape:version="1.3 (0e150ed6c4, 2023-07-21)"
   xmlns:inkscape="http://www.inkscape.org/namespaces/inkscape"
   xmlns:sodipodi="http://sodipodi.sourceforge.net/DTD/sodipodi-0.dtd"
   xmlns="http://www.w3.org/2000/svg"
   xmlns:svg="http://www.w3.org/2000/svg">
  <defs
     id="defs1" />
  <sodipodi:namedview
     id="namedview1"
     pagecolor="#ffffff"
     bordercolor="#000000"
     borderopacity="0.25"
     inkscape:showpageshadow="2"
     inkscape:pageopacity="0.0"
     inkscape:pagecheckerboard="0"
     inkscape:deskcolor="#d1d1d1"
     inkscape:zoom="16.791667"
     inkscape:cx="12"
     inkscape:cy="11.970223"
     inkscape:window-width="1024"
     inkscape:window-height="705"
     inkscape:window-x="-8"
     inkscape:window-y="-8"
     inkscape:window-maximized="1"
     inkscape:current-layer="svg1" />
  <path
     d="M400-480q-66 0-113-47t-47-113q0-66 47-113t113-47q66 0 113 47t47 113q0 66-47 113t-113 47ZM80-160v-112q0-33 17-62t47-44q51-26 115-44t141-18h14q6 0 12 2-8 18-13.5 37.5T404-360h-4q-71 0-127.5 18T180-306q-9 5-14.5 14t-5.5 20v32h252q6 21 16 41.5t22 38.5H80Zm560 40-12-60q-12-5-22.5-10.5T584-204l-58 18-40-68 46-40q-2-14-2-26t2-26l-46-40 40-68 58 18q11-8 21.5-13.5T628-460l12-60h80l12 60q12 5 22.5 11t21.5 15l58-20 40 70-46 40q2 12 2 25t-2 25l46 40-40 68-58-18q-11 8-21.5 13.5T732-180l-12 60h-80Zm40-120q33 0 56.5-23.5T760-320q0-33-23.5-56.5T680-400q-33 0-56.5 23.5T600-320q0 33 23.5 56.5T680-240ZM400-560q33 0 56.5-23.5T480-640q0-33-23.5-56.5T400-720q-33 0-56.5 23.5T320-640q0 33 23.5 56.5T400-560Zm0-80Zm12 400Z"
     id="path1" />
  <path
     style="fill:#ffffff;stroke-width:0.196048;stroke-linecap:round;stroke-linejoin:round;stroke-miterlimit:21.5"
     d="m 2.0248139,18.414497 c 0,-1.702025 0.037548,-1.986581 0.3423544,-2.594494 0.3432255,-0.684537 0.8555192,-1.100941 1.9335632,-1.571643 1.1888878,-0.5191 2.5291575,-0.913148 3.682479,-1.082675 0.7902932,-0.116165 2.5262355,-0.192867 2.5751135,-0.113781 0.0195,0.03156 -0.03287,0.243271 -0.116389,0.470478 -0.08352,0.227206 -0.198686,0.640893 -0.255932,0.919305 l -0.104082,0.506204 -0.7342497,0.04361 c -1.3764167,0.08175 -2.7010885,0.408 -4.1815015,1.02985 -0.6341637,0.266381 -0.8637028,0.416079 -1.0406831,0.6787 -0.1168707,0.173425 -0.1354123,0.2772 -0.1354123,0.757888 v 0.55695 h 3.146901 3.1469006 l 0.07307,0.243896 c 0.09156,0.305603 0.414365,0.997827 0.656921,1.40871 l 0.184569,0.312655 H 6.6116265 2.0248139 Z"
     id="path2"
     transform="matrix(40,0,0,40,0,-960)" />
  <path
     style="fill:#ffffff;stroke-width:0.196048;stroke-linecap:round;stroke-linejoin:round;stroke-miterlimit:21.5"
     d="m 16.019851,20.970969 c 0,-0.05576 -0.300425,-1.488641 -0.313099,-1.49333 -0.09696,-0.03587 -0.721503,-0.357156 -0.889926,-0.457805 l -0.220394,-0.131707 -0.434693,0.128389 c -0.23908,0.07061 -0.561573,0.167518 -0.716651,0.215343 l -0.281959,0.08695 -0.479189,-0.810207 c -0.263553,-0.445614 -0.471659,-0.830069 -0.462457,-0.854346 0.0092,-0.02428 0.254479,-0.254555 0.545061,-0.51173 l 0.528331,-0.467591 -6.22e-4,-0.680943 -6.22e-4,-0.680943 -0.438379,-0.379114 c -0.757476,-0.655073 -0.733482,-0.480259 -0.193453,-1.409437 0.27379,-0.471086 0.506975,-0.808086 0.559045,-0.807932 0.04913,1.44e-4 0.380489,0.09321 0.736351,0.2068 0.640628,0.204497 0.648573,0.205444 0.803971,0.09578 0.08632,-0.06092 0.331142,-0.197728 0.544045,-0.304022 0.212903,-0.106294 0.393404,-0.198625 0.401112,-0.205181 0.0077,-0.0066 0.06779,-0.27807 0.133514,-0.603364 0.06573,-0.325294 0.133626,-0.651741 0.150891,-0.725439 0.03098,-0.132238 0.0442,-0.133995 1.008666,-0.133995 h 0.977273 l 0.06945,0.342432 c 0.185532,0.914773 0.225224,1.094999 0.245081,1.112819 0.0118,0.01059 0.155451,0.08697 0.319223,0.169739 0.163772,0.08277 0.404963,0.229071 0.53598,0.325121 l 0.238213,0.174636 0.682074,-0.228627 c 0.375141,-0.125744 0.710129,-0.22804 0.744417,-0.227324 0.03429,7.16e-4 0.274444,0.378962 0.533678,0.840547 l 0.471333,0.839245 -0.351644,0.305855 c -0.193404,0.16822 -0.442319,0.387792 -0.553144,0.487936 l -0.201501,0.182082 -0.0075,0.655503 -0.0075,0.655503 0.550495,0.472589 c 0.302771,0.259925 0.550662,0.4868 0.550868,0.504168 4.57e-4,0.0386 -0.887671,1.560551 -0.942867,1.61576 -0.02166,0.02167 -0.320779,-0.05063 -0.664699,-0.160662 -0.343921,-0.110032 -0.667635,-0.201459 -0.719364,-0.203169 -0.05173,-0.0017 -0.30567,0.117485 -0.564315,0.26488 -0.258644,0.147394 -0.504409,0.26799 -0.546145,0.26799 -0.04174,0 -0.07588,0.0097 -0.07588,0.02159 0,0.01187 -0.067,0.350546 -0.148883,0.752606 -0.08189,0.402061 -0.148883,0.740734 -0.148883,0.752607 0,0.01187 -0.442184,0.02159 -0.982631,0.02159 -0.540446,0 -0.98263,-0.0097 -0.98263,-0.02159 z m 1.86284,-3.155504 c 0.367904,-0.179999 0.74219,-0.553671 0.942604,-0.941058 0.20152,-0.389525 0.227284,-1.155686 0.05429,-1.614549 -0.165485,-0.438954 -0.596861,-0.888718 -1.057063,-1.102123 -0.280748,-0.130189 -0.431016,-0.15965 -0.821297,-0.16102 -0.421696,-0.0015 -0.524351,0.0213 -0.875912,0.194372 -0.815515,0.401476 -1.238389,1.20284 -1.114906,2.11279 0.09941,0.732563 0.660193,1.391556 1.386066,1.628809 0.398474,0.130242 1.092262,0.07552 1.486214,-0.117221 z"
     id="path3"
     transform="matrix(40,0,0,40,0,-960)" />
  <path
     style="fill:#ffffff;stroke-width:0.196048;stroke-linecap:round;stroke-linejoin:round;stroke-miterlimit:21.5"
     d="M 9.4689826,11.942788 C 8.2449985,11.77064 7.1862469,11.046167 6.506483,9.9156328 6.4375525,9.8009926 6.3076598,9.492804 6.2178324,9.2307692 6.0787862,8.8251585 6.0537813,8.6525443 6.0496075,8.0694789 6.0440052,7.2868384 6.1196906,6.9123364 6.4046549,6.3126551 7.1954401,4.6485197 9.0188525,3.7413208 10.823606,4.1141028 c 1.444014,0.2982693 2.65261,1.4497391 3.030982,2.887718 0.121822,0.4629747 0.135248,1.4356039 0.02625,1.901405 -0.253533,1.0834434 -1.114178,2.1610222 -2.11905,2.6531752 -0.690557,0.338212 -1.575268,0.487305 -2.2928054,0.386387 z M 10.856705,9.8292959 C 11.241692,9.6471679 11.689452,9.1901756 11.868091,8.7970558 12.061508,8.3714149 12.050392,7.6169665 11.84421,7.1761787 11.65927,6.7808058 11.278197,6.3882216 10.871205,6.1737824 10.606642,6.0343878 10.503084,6.0155369 10.004963,6.0160986 9.5361252,6.0166274 9.3919081,6.0401103 9.1631092,6.1531782 8.7410597,6.3617467 8.439013,6.6527578 8.214184,7.0674335 8.0244703,7.4173423 8.009947,7.4823347 8.0102265,7.9801489 c 2.426e-4,0.4320787 0.02677,0.5937032 0.1368442,0.8337469 0.1491635,0.3252881 0.5197813,0.7383055 0.8425409,0.9389295 0.5129649,0.3188537 1.2876664,0.3505837 1.8670934,0.076471 z"
     id="path4"
     transform="matrix(40,0,0,40,0,-960)" />
</svg>
