<?xml version="1.0" encoding="UTF-8" standalone="no"?>
<svg
   height="24"
   viewBox="0 -960 960 960"
   width="24"
   version="1.1"
   id="svg1"
   sodipodi:docname="map_FILL0_wght400_GRAD0_opsz24.svg"
   inkscape:export-filename="icono2.png"
   inkscape:export-xdpi="96"
   inkscape:export-ydpi="96"
   inkscape:version="1.3 (0e150ed6c4, 2023-07-21)"
   xmlns:inkscape="http://www.inkscape.org/namespaces/inkscape"
   xmlns:sodipodi="http://sodipodi.sourceforge.net/DTD/sodipodi-0.dtd"
   xmlns="http://www.w3.org/2000/svg"
   xmlns:svg="http://www.w3.org/2000/svg">
  <defs
     id="defs1" />
  <sodipodi:namedview
     id="namedview1"
     pagecolor="#ffffff"
     bordercolor="#000000"
     borderopacity="0.25"
     inkscape:showpageshadow="2"
     inkscape:pageopacity="0.0"
     inkscape:pagecheckerboard="0"
     inkscape:deskcolor="#d1d1d1"
     inkscape:zoom="16.791667"
     inkscape:cx="12"
     inkscape:cy="11.970223"
     inkscape:window-width="1024"
     inkscape:window-height="705"
     inkscape:window-x="-8"
     inkscape:window-y="-8"
     inkscape:window-maximized="1"
     inkscape:current-layer="svg1" />
  <path
     d="m600-120-240-84-186 72q-20 8-37-4.5T120-170v-560q0-13 7.5-23t20.5-15l212-72 240 84 186-72q20-8 37 4.5t17 33.5v560q0 13-7.5 23T812-192l-212 72Zm-40-98v-468l-160-56v468l160 56Zm80 0 120-40v-474l-120 46v468Zm-440-10 120-46v-468l-120 40v474Zm440-458v468-468Zm-320-56v468-468Z"
     id="path1" />
  <path
     style="fill:#ffffff;stroke-width:0.196048;stroke-linecap:round;stroke-linejoin:round;stroke-miterlimit:21.5"
     d="M 11.929425,19.893203 9.0002888,18.861981 6.5577531,19.808162 c -1.3433946,0.520399 -2.5024302,0.94618 -2.5756347,0.94618 -0.2623018,0 -0.6432103,-0.240091 -0.7968559,-0.502267 L 3.0372208,19.999461 v -7.2215 c 0,-7.9949749 -0.025813,-7.4678718 0.3805892,-7.771795 0.1754796,-0.1312306 5.3773592,-1.9394412 5.5788693,-1.9392549 0.051399,4.75e-5 1.4230747,0.4660794 3.0481667,1.0356263 l 2.954714,1.0355399 2.442612,-0.9462099 c 1.343436,-0.5204154 2.502505,-0.9462098 2.57571,-0.9462098 0.262878,0 0.643206,0.2400845 0.797556,0.503462 l 0.148741,0.2538087 -0.01559,7.2888587 -0.01559,7.288858 -0.13901,0.194897 c -0.07645,0.107193 -0.237249,0.24459 -0.35732,0.305327 -0.316517,0.160108 -5.317712,1.853026 -5.459005,1.847888 -0.06551,-0.0024 -1.437217,-0.468381 -3.048242,-1.035554 z m 2.125166,-7.208339 c 0,-3.2263032 -0.01051,-5.8660054 -0.02336,-5.8660054 -0.01285,0 -0.901842,-0.3081886 -1.975543,-0.6848636 -1.0737,-0.3766749 -1.987754,-0.6848635 -2.03123,-0.6848635 -0.06516,0 -0.079049,1.0293315 -0.079049,5.8585135 v 5.858514 l 1.503723,0.524875 c 0.827047,0.288682 1.704714,0.598938 1.950372,0.689459 0.245657,0.09052 0.493548,0.165888 0.550868,0.16748 0.09857,0.0027 0.104219,-0.315037 0.104219,-5.863109 z m 3.527247,5.375582 1.475234,-0.490423 v -5.941339 c 0,-4.0155889 -0.01977,-5.9413391 -0.06101,-5.9413391 -0.04548,0 -1.891295,0.6950082 -2.961326,1.1150355 -0.108144,0.042451 -0.109428,11.7484876 -0.0013,11.7484876 0.04023,0 0.737009,-0.22069 1.548387,-0.490422 z M 6.4778807,17.769748 c 0.777116,-0.298599 1.4464369,-0.556057 1.4873798,-0.572129 0.1081445,-0.04245 0.1094283,-11.7484875 0.00129,-11.7484875 -0.040234,0 -0.7370085,0.2206902 -1.5483871,0.4904227 L 4.942928,6.4299769 v 5.9413391 c 0,4.015589 0.019774,5.941339 0.061007,5.941339 0.033554,0 0.6968295,-0.244308 1.4739457,-0.542907 z"
     id="path2"
     transform="matrix(40,0,0,40,0,-960)" />
</svg>
