<?xml version="1.0" encoding="UTF-8" standalone="no"?>
<svg
   height="24"
   viewBox="0 -960 960 960"
   width="24"
   version="1.1"
   id="svg1"
   sodipodi:docname="person_remove_FILL0_wght400_GRAD0_opsz24.svg"
   inkscape:export-filename="icono3_2.png"
   inkscape:export-xdpi="96"
   inkscape:export-ydpi="96"
   inkscape:version="1.3 (0e150ed6c4, 2023-07-21)"
   xmlns:inkscape="http://www.inkscape.org/namespaces/inkscape"
   xmlns:sodipodi="http://sodipodi.sourceforge.net/DTD/sodipodi-0.dtd"
   xmlns="http://www.w3.org/2000/svg"
   xmlns:svg="http://www.w3.org/2000/svg">
  <defs
     id="defs1" />
  <sodipodi:namedview
     id="namedview1"
     pagecolor="#ffffff"
     bordercolor="#000000"
     borderopacity="0.25"
     inkscape:showpageshadow="2"
     inkscape:pageopacity="0.0"
     inkscape:pagecheckerboard="0"
     inkscape:deskcolor="#d1d1d1"
     inkscape:zoom="16.791667"
     inkscape:cx="12"
     inkscape:cy="11.970223"
     inkscape:window-width="1024"
     inkscape:window-height="705"
     inkscape:window-x="-8"
     inkscape:window-y="-8"
     inkscape:window-maximized="1"
     inkscape:current-layer="svg1" />
  <path
     d="M640-520v-80h240v80H640Zm-280 40q-66 0-113-47t-47-113q0-66 47-113t113-47q66 0 113 47t47 113q0 66-47 113t-113 47ZM40-160v-112q0-34 17.5-62.5T104-378q62-31 126-46.5T360-440q66 0 130 15.5T616-378q29 15 46.5 43.5T680-272v112H40Zm80-80h480v-32q0-11-5.5-20T580-306q-54-27-109-40.5T360-360q-56 0-111 13.5T140-306q-9 5-14.5 14t-5.5 20v32Zm240-320q33 0 56.5-23.5T440-640q0-33-23.5-56.5T360-720q-33 0-56.5 23.5T280-640q0 33 23.5 56.5T360-560Zm0-80Zm0 400Z"
     id="path1" />
  <path
     style="fill:#ffffff;stroke-width:0.196048;stroke-linecap:round;stroke-linejoin:round;stroke-miterlimit:21.5"
     d="m 1.0264873,18.297767 c 0.023009,-1.543905 0.035737,-1.711398 0.1546401,-2.034895 0.3130249,-0.851641 0.8351273,-1.384638 1.8117498,-1.849554 3.9160677,-1.864224 8.2289348,-1.838511 12.1805638,0.07262 0.926728,0.448195 1.57174,1.246204 1.739782,2.152462 0.03272,0.176431 0.05948,1.000501 0.05948,1.831266 v 1.510482 H 8.9870597 1.001415 Z m 13.9714887,-0.8933 c -0.02612,-0.785062 -0.103565,-0.906508 -0.78393,-1.22931 -1.031415,-0.48936 -2.198269,-0.856757 -3.375336,-1.062762 -0.806555,-0.141159 -2.9137516,-0.13965 -3.692308,0.0026 -1.2234219,0.223602 -2.2144516,0.532082 -3.2136276,1.000311 -0.8360566,0.39179 -0.9551069,0.561383 -0.9551069,1.3606 v 0.538937 h 6.0203089 6.0203096 z"
     id="path2"
     transform="matrix(40,0,0,40,0,-960)" />
  <path
     style="fill:#ffffff;stroke-width:0.196048;stroke-linecap:round;stroke-linejoin:round;stroke-miterlimit:21.5"
     d="M 8.5459057,11.934033 C 6.8047531,11.77318 5.2662895,10.24972 5.0695945,8.4916231 4.9304202,7.2476567 5.3066741,6.1377322 6.1637717,5.2638716 7.0355965,4.3749956 8.0673641,3.9671135 9.248769,4.0442992 c 0.980981,0.064091 1.834483,0.4548196 2.544539,1.1648748 0.472084,0.472085 0.769548,0.9484869 0.986844,1.5804795 0.140948,0.4099385 0.163766,0.5707243 0.164723,1.1607187 0.002,1.2240933 -0.302812,1.9557666 -1.180382,2.8335368 -0.416718,0.416812 -0.642748,0.590683 -0.986298,0.758697 -0.722272,0.35323 -1.3859893,0.469611 -2.2322893,0.391427 z M 9.9136649,9.8019384 C 10.331993,9.5959962 10.637719,9.2856768 10.853314,8.8481728 10.964105,8.623346 10.987593,8.4767212 10.987593,8.0099256 c 0,-0.4991048 -0.01965,-0.6057664 -0.166771,-0.9053666 C 10.610057,6.6753614 10.164291,6.2695361 9.7192039,6.1016464 9.4452107,5.9982943 9.2871923,5.9782419 8.9007639,5.9977871 8.1208076,6.0372366 7.571803,6.3831257 7.2029924,7.0674335 7.0153568,7.4155812 6.9998572,7.4848402 6.998734,7.9801489 6.9972606,8.6299279 7.1273047,8.9640143 7.5511626,9.3993513 8.0156671,9.8764358 8.445857,10.043241 9.1270827,10.010411 9.432155,9.9957094 9.6225773,9.9452403 9.9136649,9.8019384 Z"
     id="path3"
     transform="matrix(40,0,0,40,0,-960)" />
  <path
     style="fill:#ffffff;stroke-width:0.196048;stroke-linecap:round;stroke-linejoin:round;stroke-miterlimit:21.5"
     d="M 16.019851,10.004963 V 9.0223325 h 2.977668 2.977667 v 0.9826305 0.98263 h -2.977667 -2.977668 z"
     id="path4"
     transform="matrix(40,0,0,40,0,-960)" />
</svg>
