<?xml version="1.0" encoding="UTF-8" standalone="no"?>
<svg
   height="24"
   viewBox="0 -960 960 960"
   width="24"
   version="1.1"
   id="svg1"
   sodipodi:docname="person_search_FILL0_wght400_GRAD0_opsz24.svg"
   inkscape:export-filename="icono6_2.png"
   inkscape:export-xdpi="96"
   inkscape:export-ydpi="96"
   inkscape:version="1.3 (0e150ed6c4, 2023-07-21)"
   xmlns:inkscape="http://www.inkscape.org/namespaces/inkscape"
   xmlns:sodipodi="http://sodipodi.sourceforge.net/DTD/sodipodi-0.dtd"
   xmlns="http://www.w3.org/2000/svg"
   xmlns:svg="http://www.w3.org/2000/svg">
  <defs
     id="defs1" />
  <sodipodi:namedview
     id="namedview1"
     pagecolor="#ffffff"
     bordercolor="#000000"
     borderopacity="0.25"
     inkscape:showpageshadow="2"
     inkscape:pageopacity="0.0"
     inkscape:pagecheckerboard="0"
     inkscape:deskcolor="#d1d1d1"
     inkscape:zoom="16.791667"
     inkscape:cx="12"
     inkscape:cy="11.970223"
     inkscape:window-width="1024"
     inkscape:window-height="705"
     inkscape:window-x="-8"
     inkscape:window-y="-8"
     inkscape:window-maximized="1"
     inkscape:current-layer="svg1" />
  <path
     d="M440-480q-66 0-113-47t-47-113q0-66 47-113t113-47q66 0 113 47t47 113q0 66-47 113t-113 47Zm0-80q33 0 56.5-23.5T520-640q0-33-23.5-56.5T440-720q-33 0-56.5 23.5T360-640q0 33 23.5 56.5T440-560ZM884-20 756-148q-21 12-45 20t-51 8q-75 0-127.5-52.5T480-300q0-75 52.5-127.5T660-480q75 0 127.5 52.5T840-300q0 27-8 51t-20 45L940-76l-56 56ZM660-200q42 0 71-29t29-71q0-42-29-71t-71-29q-42 0-71 29t-29 71q0 42 29 71t71 29Zm-540 40v-111q0-34 17-63t47-44q51-26 115-44t142-18q-12 18-20.5 38.5T407-359q-60 5-107 20.5T221-306q-10 5-15.5 14.5T200-271v31h207q5 22 13.5 42t20.5 38H120Zm320-480Zm-33 400Z"
     id="path1" />
  <path
     style="fill:#ffffff;stroke-width:0.196048;stroke-linecap:round;stroke-linejoin:round;stroke-miterlimit:21.5"
     d="m 3.0372208,18.414497 c 0,-1.692281 0.034742,-1.959341 0.3345409,-2.57161 0.1993715,-0.40717 0.597682,-0.860902 0.959646,-1.093174 0.3673487,-0.235727 1.3300149,-0.662092 2.1118707,-0.935349 1.2926519,-0.451778 2.4582799,-0.682342 3.9115176,-0.773709 l 0.617824,-0.03884 -0.1813,0.317952 c -0.219734,0.385358 -0.523861,1.140359 -0.58009,1.440087 -0.0462,0.246286 -0.0135,0.233384 -0.8421034,0.332265 -1.1151695,0.133079 -2.630573,0.607302 -3.6531435,1.143197 -0.6226139,0.326291 -0.7153997,0.478637 -0.7591818,1.24651 l -0.030322,0.531801 2.6013966,0.01552 2.6013971,0.01552 0.179551,0.53598 c 0.09875,0.294789 0.284065,0.730273 0.411805,0.967742 l 0.232255,0.431762 H 6.9950521 3.0372208 Z"
     id="path2"
     transform="matrix(40,0,0,40,0,-960)" />
  <path
     style="fill:#ffffff;stroke-width:0.196048;stroke-linecap:round;stroke-linejoin:round;stroke-miterlimit:21.5"
     d="m 20.480448,21.850453 -1.58379,-1.58379 -0.292002,0.147126 c -1.929027,0.971944 -3.980541,0.627473 -5.401101,-0.906902 -1.239083,-1.338358 -1.524065,-3.329581 -0.714229,-4.990453 0.549461,-1.126875 1.75249,-2.089449 2.960801,-2.369014 0.593164,-0.13724 1.607105,-0.12425 2.1988,0.02817 1.300588,0.335028 2.530294,1.428448 3.008559,2.675127 0.458573,1.195349 0.390536,2.447023 -0.198375,3.649521 l -0.193946,0.396019 1.599168,1.598346 1.599169,1.598346 -0.668744,0.670648 c -0.36781,0.368856 -0.682645,0.670647 -0.699633,0.670647 -0.01699,0 -0.743593,-0.712705 -1.614677,-1.583791 z m -3.29693,-2.915585 c 0.95882,-0.249675 1.687466,-1.08168 1.801343,-2.056865 0.101245,-0.867016 -0.112225,-1.546385 -0.669477,-2.130605 -1.213567,-1.272298 -3.379645,-0.909547 -4.130021,0.69165 -0.146411,0.312421 -0.160549,0.405521 -0.160549,1.05723 0,0.651709 0.01414,0.744809 0.160549,1.057229 0.186774,0.39855 0.666359,0.929685 1.033984,1.145128 0.539769,0.316325 1.303738,0.408209 1.964171,0.236233 z"
     id="path3"
     transform="matrix(40,0,0,40,0,-960)" />
  <path
     style="fill:#ffffff;stroke-width:0.196048;stroke-linecap:round;stroke-linejoin:round;stroke-miterlimit:21.5"
     d="M 10.5399,11.931448 C 8.7022338,11.757118 7.1671806,10.143437 7.0449983,8.2575333 6.9854793,7.3388488 7.2322585,6.4699893 7.7645913,5.7239917 8.4715846,4.7332294 9.5298642,4.1349289 10.739852,4.0419218 c 0.66586,-0.051182 1.346333,0.086158 2.004565,0.404583 0.417568,0.2020017 0.600357,0.3398959 1.043919,0.7875249 0.834118,0.8417639 1.156873,1.6156678 1.158675,2.7782721 0.0011,0.6909991 -0.101451,1.1197286 -0.426482,1.783486 -0.19504,0.3983002 -0.349585,0.6070472 -0.728937,0.9845922 -0.908896,0.90457 -1.953212,1.274248 -3.251692,1.151068 z M 11.879215,9.8297325 C 12.258147,9.6443381 12.706779,9.1808035 12.878691,8.7970558 13.073717,8.3617096 13.061356,7.6132934 12.851702,7.1630568 12.664421,6.7608672 12.25986,6.3472262 11.868468,6.1577568 11.453259,5.9567575 10.7419,5.931459 10.290722,6.1016464 9.8643557,6.2624744 9.3915948,6.6819271 9.1875323,7.0804408 8.9803304,7.4850856 8.930913,8.2104758 9.079975,8.6592592 c 0.195878,0.5897337 0.7120002,1.0808095 1.358896,1.2929512 0.379566,0.1244746 1.05256,0.067247 1.440344,-0.1224779 z"
     id="path4"
     transform="matrix(40,0,0,40,0,-960)" />
</svg>
