<?xml version="1.0" encoding="UTF-8" standalone="no"?>
<svg
   height="24px"
   viewBox="0 -960 960 960"
   width="24px"
   fill="#e8eaed"
   version="1.1"
   id="svg1"
   sodipodi:docname="receipt_long_24dp_FILL0_wght400_GRAD0_opsz24.svg"
   inkscape:export-filename="lista.png"
   inkscape:export-xdpi="96"
   inkscape:export-ydpi="96"
   inkscape:version="1.3 (0e150ed6c4, 2023-07-21)"
   xmlns:inkscape="http://www.inkscape.org/namespaces/inkscape"
   xmlns:sodipodi="http://sodipodi.sourceforge.net/DTD/sodipodi-0.dtd"
   xmlns="http://www.w3.org/2000/svg"
   xmlns:svg="http://www.w3.org/2000/svg">
  <defs
     id="defs1" />
  <sodipodi:namedview
     id="namedview1"
     pagecolor="#ffffff"
     bordercolor="#000000"
     borderopacity="0.25"
     inkscape:showpageshadow="2"
     inkscape:pageopacity="0.0"
     inkscape:pagecheckerboard="0"
     inkscape:deskcolor="#d1d1d1"
     inkscape:zoom="16.791667"
     inkscape:cx="12"
     inkscape:cy="11.970223"
     inkscape:window-width="1024"
     inkscape:window-height="705"
     inkscape:window-x="-8"
     inkscape:window-y="-8"
     inkscape:window-maximized="1"
     inkscape:current-layer="svg1" />
  <path
     d="M240-80q-50 0-85-35t-35-85v-120h120v-560l60 60 60-60 60 60 60-60 60 60 60-60 60 60 60-60 60 60 60-60v680q0 50-35 85t-85 35H240Zm480-80q17 0 28.5-11.5T760-200v-560H320v440h360v120q0 17 11.5 28.5T720-160ZM360-600v-80h240v80H360Zm0 120v-80h240v80H360Zm320-120q-17 0-28.5-11.5T640-640q0-17 11.5-28.5T680-680q17 0 28.5 11.5T720-640q0 17-11.5 28.5T680-600Zm0 120q-17 0-28.5-11.5T640-520q0-17 11.5-28.5T680-560q17 0 28.5 11.5T720-520q0 17-11.5 28.5T680-480ZM240-160h360v-80H200v40q0 17 11.5 28.5T240-160Zm-40 0v-80 80Z"
     id="path1" />
  <path
     style="fill:#ffffff;stroke-width:0.196048;stroke-linecap:round;stroke-linejoin:round;stroke-miterlimit:21.5"
     d="M 5.6115876,21.94331 C 4.4725564,21.823694 3.4245735,20.906292 3.1285107,19.76963 3.0569038,19.494712 3.0372208,19.055895 3.0372208,17.734386 V 16.049628 H 4.5260546 6.0148883 V 9.0381147 2.0266012 L 6.7593052,2.7692308 7.5037221,3.5118603 8.248139,2.7692308 8.9925558,2.0266012 9.7229443,2.7552361 c 0.4017137,0.4007492 0.7572197,0.7286349 0.7900127,0.7286349 0.03279,0 0.38039,-0.3216041 0.772438,-0.7146757 l 0.712814,-0.7146757 0.716395,0.7146757 c 0.394019,0.3930716 0.742421,0.7146757 0.77423,0.7146757 0.03181,0 0.386508,-0.3278857 0.788222,-0.7286349 l 0.730388,-0.7286349 0.744417,0.7426296 0.744417,0.7426295 0.744417,-0.7426295 0.744417,-0.7426296 0.730388,0.7286349 c 0.401714,0.4007492 0.756398,0.7286349 0.788188,0.7286349 0.03179,0 0.373089,-0.3144695 0.758445,-0.698821 l 0.700646,-0.6988209 v 8.6664579 c 0,9.477031 0.01721,8.993012 -0.343849,9.669654 -0.0887,0.166223 -0.326797,0.46999 -0.529109,0.675036 -0.50081,0.507578 -1.059223,0.773565 -1.784122,0.84982 -0.626945,0.06595 -12.0624335,0.06245 -12.6941114,-0.0039 z M 15.007444,18.997519 V 17.955335 H 10.004963 5.0024814 v 0.660975 c 0,0.689705 0.066012,0.945667 0.2980409,1.15565 0.2873167,0.260018 0.3330959,0.262381 5.1362027,0.265128 l 4.570719,0.0026 z m 3.576805,0.83843 c 0.443298,-0.29336 0.41327,0.266922 0.41327,-7.710954 V 4.9727047 H 13.488834 7.9801489 v 5.5384613 5.538462 h 4.4962781 4.496278 v 1.574287 c 0,0.970582 0.02436,1.638576 0.06352,1.741935 0.227909,0.601518 0.996665,0.834971 1.548024,0.470099 z"
     id="path2"
     transform="matrix(40,0,0,40,0,-960)" />
  <path
     style="fill:#ffffff;stroke-width:0.196048;stroke-linecap:round;stroke-linejoin:round;stroke-miterlimit:21.5"
     d="M 9.0521092,11.01737 V 10.034739 H 12 14.947891 V 11.01737 12 H 12 9.0521092 Z"
     id="path3"
     transform="matrix(40,0,0,40,0,-960)" />
  <path
     style="fill:#ffffff;stroke-width:0.196048;stroke-linecap:round;stroke-linejoin:round;stroke-miterlimit:21.5"
     d="m 16.763022,11.945964 c -0.469247,-0.115931 -0.782142,-0.571391 -0.727228,-1.05858 0.072,-0.638775 0.757071,-1.0289167 1.362522,-0.775943 0.429283,0.179366 0.679507,0.742328 0.530555,1.193658 -0.0774,0.234533 -0.482505,0.634901 -0.643683,0.636161 -0.05723,4.47e-4 -0.157645,0.01169 -0.223153,0.02498 -0.06551,0.01329 -0.200065,0.0042 -0.299013,-0.02028 z"
     id="path4"
     transform="matrix(40,0,0,40,0,-960)" />
  <path
     style="fill:#ffffff;stroke-width:0.196048;stroke-linecap:round;stroke-linejoin:round;stroke-miterlimit:21.5"
     d="M 9.0521092,7.9801489 V 6.9975186 H 12 14.947891 V 7.9801489 8.9627792 H 12 9.0521092 Z"
     id="path5"
     transform="matrix(40,0,0,40,0,-960)" />
  <path
     style="fill:#ffffff;stroke-width:0.196048;stroke-linecap:round;stroke-linejoin:round;stroke-miterlimit:21.5"
     d="M 16.520772,8.850167 C 15.953243,8.5040908 15.856851,7.8266094 16.306649,7.3452216 16.95325,6.6532092 18.108494,7.2144272 17.959204,8.1480337 17.913398,8.4344891 17.693605,8.7470267 17.44901,8.8735117 17.207014,8.9986528 16.745229,8.9870391 16.520772,8.850167 Z"
     id="path6"
     transform="matrix(40,0,0,40,0,-960)" />
</svg>
