<?xml version="1.0" encoding="UTF-8" standalone="no"?>
<svg
   height="24"
   viewBox="0 -960 960 960"
   width="24"
   version="1.1"
   id="svg1"
   sodipodi:docname="restart_alt_FILL0_wght400_GRAD0_opsz24 (2).svg"
   inkscape:export-filename="icono4.png"
   inkscape:export-xdpi="96"
   inkscape:export-ydpi="96"
   inkscape:version="1.3 (0e150ed6c4, 2023-07-21)"
   xmlns:inkscape="http://www.inkscape.org/namespaces/inkscape"
   xmlns:sodipodi="http://sodipodi.sourceforge.net/DTD/sodipodi-0.dtd"
   xmlns="http://www.w3.org/2000/svg"
   xmlns:svg="http://www.w3.org/2000/svg">
  <defs
     id="defs1" />
  <sodipodi:namedview
     id="namedview1"
     pagecolor="#ffffff"
     bordercolor="#000000"
     borderopacity="0.25"
     inkscape:showpageshadow="2"
     inkscape:pageopacity="0.0"
     inkscape:pagecheckerboard="0"
     inkscape:deskcolor="#d1d1d1"
     inkscape:zoom="16.791667"
     inkscape:cx="12"
     inkscape:cy="11.970223"
     inkscape:window-width="1024"
     inkscape:window-height="705"
     inkscape:window-x="-8"
     inkscape:window-y="-8"
     inkscape:window-maximized="1"
     inkscape:current-layer="svg1" />
  <path
     d="M440-122q-121-15-200.5-105.5T160-440q0-66 26-126.5T260-672l57 57q-38 34-57.5 79T240-440q0 88 56 155.5T440-202v80Zm80 0v-80q87-16 143.5-83T720-440q0-100-70-170t-170-70h-3l44 44-56 56-140-140 140-140 56 56-44 44h3q134 0 227 93t93 227q0 121-79.5 211.5T520-122Z"
     id="path1" />
  <path
     style="fill:#ffffff;stroke-width:0.196048;stroke-linecap:round;stroke-linejoin:round;stroke-miterlimit:21.5"
     d="M 10.39206,20.815441 C 9.2752734,20.591404 8.1236667,20.083609 7.2649833,19.436571 6.6807196,18.996315 5.7699112,18.044275 5.3898933,17.476597 4.8167853,16.620477 4.4166274,15.692304 4.1970081,14.709677 4.0503638,14.053558 4.0172899,12.452328 4.1355064,11.732153 4.3787872,10.250087 5.1172531,8.7236881 6.0973401,7.6770697 L 6.482739,7.2655087 7.1686877,7.946207 7.8546365,8.6269053 7.4937712,9.0126715 c -0.877134,0.9376589 -1.4075255,2.1984845 -1.5072033,3.5828615 -0.1542985,2.142978 0.8774279,4.259928 2.6681237,5.474595 0.4458261,0.302413 1.2174931,0.641966 1.7861914,0.785967 l 0.516933,0.130895 v 0.973006 c 0,0.535154 -0.0067,0.970748 -0.01489,0.967987 -0.0082,-0.0028 -0.256079,-0.05341 -0.550868,-0.112542 z"
     id="path2"
     transform="matrix(40,0,0,40,0,-960)" />
  <path
     style="fill:#ffffff;stroke-width:0.196048;stroke-linecap:round;stroke-linejoin:round;stroke-miterlimit:21.5"
     d="m 13.042184,19.950457 v -0.968235 l 0.401985,-0.100812 c 1.104364,-0.276958 1.904013,-0.73542 2.757857,-1.581162 0.933223,-0.924367 1.438323,-1.818972 1.698024,-3.007444 0.140353,-0.642304 0.139953,-1.965133 -7.95e-4,-2.620347 C 17.352534,9.1273286 15.067836,7.144036 12.53598,7.0167235 L 11.880893,6.983783 12.431688,7.5425642 12.982483,8.1013454 12.311923,8.7700026 11.641364,9.4386599 9.915232,7.7117579 8.1891002,5.984856 9.900901,4.2730552 11.612702,2.5612544 12.28199,3.2305429 12.951279,3.8998315 12.430974,4.4225579 c -0.286167,0.2874995 -0.520304,0.5382229 -0.520304,0.5571632 0,0.01894 0.28124,0.051645 0.624978,0.072676 2.23534,0.1367705 4.17979,1.1288466 5.61616,2.8654159 1.233646,1.4914753 1.798085,3.081379 1.798085,5.064817 0,1.810078 -0.514342,3.377907 -1.564993,4.77045 -1.236674,1.639099 -2.9497,2.719887 -4.881178,3.079647 l -0.461538,0.08597 z"
     id="path3"
     transform="matrix(40,0,0,40,0,-960)" />
</svg>
