<?xml version="1.0" encoding="UTF-8" standalone="no"?>
<svg
   height="24"
   viewBox="0 -960 960 960"
   width="24"
   version="1.1"
   id="svg1"
   sodipodi:docname="upload_FILL0_wght400_GRAD0_opsz24.svg"
   inkscape:export-filename="icono3_3.png"
   inkscape:export-xdpi="96"
   inkscape:export-ydpi="96"
   inkscape:version="1.3 (0e150ed6c4, 2023-07-21)"
   xmlns:inkscape="http://www.inkscape.org/namespaces/inkscape"
   xmlns:sodipodi="http://sodipodi.sourceforge.net/DTD/sodipodi-0.dtd"
   xmlns="http://www.w3.org/2000/svg"
   xmlns:svg="http://www.w3.org/2000/svg">
  <defs
     id="defs1" />
  <sodipodi:namedview
     id="namedview1"
     pagecolor="#ffffff"
     bordercolor="#000000"
     borderopacity="0.25"
     inkscape:showpageshadow="2"
     inkscape:pageopacity="0.0"
     inkscape:pagecheckerboard="0"
     inkscape:deskcolor="#d1d1d1"
     inkscape:zoom="16.791667"
     inkscape:cx="12"
     inkscape:cy="11.970223"
     inkscape:window-width="1024"
     inkscape:window-height="705"
     inkscape:window-x="-8"
     inkscape:window-y="-8"
     inkscape:window-maximized="1"
     inkscape:current-layer="svg1" />
  <path
     d="M440-320v-326L336-542l-56-58 200-200 200 200-56 58-104-104v326h-80ZM240-160q-33 0-56.5-23.5T160-240v-120h80v120h480v-120h80v120q0 33-23.5 56.5T720-160H240Z"
     id="path1" />
  <path
     style="fill:#ffffff;stroke-width:0.196048;stroke-linecap:round;stroke-linejoin:round;stroke-miterlimit:21.5"
     d="M 5.5682382,19.925399 C 5.0464134,19.797253 4.5293933,19.393063 4.2560575,18.899578 L 4.0794045,18.580645 4.061253,16.808933 4.0431015,15.037221 H 4.9992182 5.955335 v 1.488834 1.488833 H 12 18.044665 v -1.488833 -1.488834 h 0.956117 0.956117 l -0.01815,1.771712 -0.01815,1.771712 -0.176654,0.318933 c -0.204041,0.368379 -0.569909,0.711442 -0.971752,0.911183 l -0.280875,0.139611 -6.372208,0.0095 c -3.5047149,0.0052 -6.4526058,-0.01029 -6.5508688,-0.03442 z"
     id="path2"
     transform="matrix(40,0,0,40,0,-960)" />
  <path
     style="fill:#ffffff;stroke-width:0.196048;stroke-linecap:round;stroke-linejoin:round;stroke-miterlimit:21.5"
     d="M 11.01737,11.896289 V 7.8025041 L 9.72135,9.0975196 8.4253302,10.392535 7.7418218,9.707082 7.0583134,9.0216291 9.5288892,6.5505152 11.999465,4.0794013 14.456376,6.5357767 c 1.3513,1.3510065 2.45018,2.4752631 2.441954,2.498348 -0.0082,0.023085 -0.308246,0.3393378 -0.666713,0.7027842 L 15.579859,10.397721 14.281245,9.1001122 12.98263,7.8025041 v 4.0937849 4.093785 H 12 11.01737 Z"
     id="path3"
     transform="matrix(40,0,0,40,0,-960)" />
</svg>
